<svg width="21" height="21" viewBox="0 0 21 21" fill="none" xmlns="http://www.w3.org/2000/svg">
<path d="M8.95408 2.9267C7.35521 2.9267 5.82183 3.56185 4.69125 4.69242C3.56068 5.82299 2.92553 7.35638 2.92553 8.95525C2.92553 10.5541 3.56068 12.0875 4.69125 13.2181C5.82183 14.3486 7.35521 14.9838 8.95408 14.9838C10.553 14.9838 12.0863 14.3486 13.2169 13.2181C14.3475 12.0875 14.9826 10.5541 14.9826 8.95525C14.9826 7.35638 14.3475 5.82299 13.2169 4.69242C12.0863 3.56185 10.553 2.9267 8.95408 2.9267ZM0.916016 8.95525C0.916199 7.67605 1.22168 6.41537 1.80707 5.27798C2.39247 4.14059 3.24087 3.15933 4.28176 2.41577C5.32265 1.6722 6.52598 1.1878 7.79173 1.00282C9.05748 0.817842 10.3491 0.937627 11.5593 1.35222C12.7694 1.76682 13.8631 2.46424 14.7495 3.38655C15.6359 4.30885 16.2894 5.42939 16.6557 6.65503C17.0219 7.88068 17.0903 9.17604 16.8553 10.4335C16.6202 11.6909 16.0884 12.874 15.3042 13.8846L20.7168 19.2972C20.8998 19.4867 21.0011 19.7405 20.9988 20.004C20.9965 20.2674 20.8908 20.5194 20.7045 20.7057C20.5183 20.892 20.2662 20.9977 20.0028 21C19.7394 21.0023 19.4856 20.901 19.2961 20.718L13.8834 15.3053C12.6953 16.2278 11.2721 16.7983 9.77574 16.9521C8.27939 17.1059 6.76993 16.8367 5.41899 16.1751C4.06805 15.5136 2.92984 14.4862 2.13381 13.2099C1.33777 11.9336 0.915849 10.4595 0.916016 8.95525V8.95525Z" fill="black" fill-opacity="0.7"/>
</svg>
